<svg width="38" height="40" viewBox="0 0 38 40" fill="none" xmlns="http://www.w3.org/2000/svg">
<path d="M37.447 0L35.047 0.8C30.9338 2.22909 26.5415 2.66763 22.227 2.08C17.6933 1.37642 13.0528 2.00163 8.86701 3.88C6.64796 4.82489 4.70051 6.30983 3.20195 8.19962C1.7034 10.0894 0.701337 12.324 0.287005 14.7C-0.13446 16.9849 -0.0913466 19.3313 0.413772 21.5992C0.918891 23.8671 1.87566 26.0099 3.227 27.9C3.107 28.32 2.987 28.74 2.887 29.16C2.07469 32.6141 1.67191 36.1517 1.687 39.7H5.68701C5.875 36.7957 6.26933 33.9084 6.86701 31.06C9.64187 32.5584 12.7537 33.3226 15.907 33.28C18.848 33.278 21.7587 32.6863 24.467 31.54C39.687 25.04 37.687 3.42 37.687 2.52L37.447 0ZM22.907 27.86C17.687 30.08 11.447 29.7 7.94701 26.96C8.53854 24.9821 9.35029 23.0768 10.367 21.28C11.1574 19.9868 12.0899 18.786 13.147 17.7C14.2272 16.6024 15.4438 15.6479 16.767 14.86C19.5011 13.2251 22.5334 12.1509 25.687 11.7V9.7C22.0586 9.57439 18.4524 10.3148 15.167 11.86C11.8078 13.4991 8.95905 16.0229 6.927 19.16C6.17334 20.3582 5.50502 21.6079 4.927 22.9C4.00005 20.5287 3.73729 17.9495 4.167 15.44C4.44855 13.6831 5.1728 12.0268 6.2715 10.6271C7.3702 9.22751 8.80718 8.13068 10.447 7.44C12.8382 6.32232 15.4475 5.74856 18.087 5.76C19.327 5.76 20.547 5.88 21.827 5.98C25.8357 6.4972 29.9057 6.25979 33.827 5.28C33.687 10.8 32.687 23.7 22.907 27.86Z" fill="#0C0708"/>
</svg>
